<?xml version="1.0" encoding="utf-8"?>
<!-- Generator: Adobe Illustrator 17.1.0, SVG Export Plug-In . SVG Version: 6.00 Build 0)  -->
<!DOCTYPE svg PUBLIC "-//W3C//DTD SVG 1.1//EN" "http://www.w3.org/Graphics/SVG/1.1/DTD/svg11.dtd">
<svg version="1.1" id="Laag_1" xmlns="http://www.w3.org/2000/svg" xmlns:xlink="http://www.w3.org/1999/xlink" x="0px" y="0px"
	 viewBox="0 0 190 70" enable-background="new 0 0 190 70" xml:space="preserve">
<polygon fill="#004682" points="178.9,50.1 178.9,44.4 188.1,44.4 188.1,39.6 178.9,39.6 178.9,34.4 188.8,34.4 188.8,29.7 
	172.2,29.7 172.2,54.8 188.9,54.8 188.9,50.1 "/>
<rect x="150.1" y="29.7" fill="#004682" width="6.7" height="25.2"/>
<polygon fill="#004682" points="118.9,34.6 125.1,34.6 125.1,54.8 131.8,54.8 131.8,34.6 138,34.6 138,29.7 118.9,29.7 "/>
<rect x="100.1" y="29.7" fill="#004682" width="6.7" height="25.2"/>
<polygon fill="#004682" points="79.8,29.7 73.1,29.7 73.1,54.8 89.3,54.8 89.3,49.9 79.8,49.9 "/>
<g>
	<path fill="#004682" d="M9.5,44.1l-1.7,0v-9.7h1.7c2.3,0,4.4,2.2,4.4,4.8C13.9,41.9,11.9,44.1,9.5,44.1 M9.1,29.7h-8v25.2h6.7v-5.6
		l2,0c6.7,0.2,10.7-4.7,10.6-9.9C20.3,33.6,16.8,29.7,9.1,29.7"/>
	<path fill="#004682" d="M51,50.9c0.9,1.2,1.4,2.7,1.4,4.2c0,4-3.2,7.2-7.2,7.2s-7.2-3.2-7.2-7.2c0-1.6,0.5-3,1.4-4.2l-5.2-4.3
		c-1.8,2.4-2.9,5.3-2.9,8.5c0,7.7,6.3,14,14,14c7.7,0,14-6.3,14-14c0-3.2-1.1-6.2-2.9-8.6L51,50.9z"/>
	<path fill="#BE965A" d="M44.3,37.6c-0.4-1.3-0.6-1.8-0.6-3.5c0-3.3,3.5-6,3.5-6c2.4-2.1,4-4,4.3-5.9c0.3-1.8-0.5-4.2-0.5-4.2
		c0.9,0.3,1.3,0.6,1.7,1.1c0.4,0.4,0.8,1.1,0.8,1.1c0.5-1.6,0.4-2.8,0.1-3.9c-0.3-1.2-0.8-2.3-2-3.4c-1.4-1.2-2.5-1.5-2.5-1.5
		c0.3,0.6,0.5,1.5,0.4,3.3c-0.2,1.8-0.6,2.9-1.9,4.5c-1.1,1.6-3.5,3.4-4.8,5.3c-1.3,1.7-1.8,3.3-1.9,4.7c-0.1,2.1,0.7,4.3,0.7,4.3
		c-0.8-0.5-1.8-1.3-2.4-2.5c-0.7-1.3-1-2.5-1.1-4.7c0-1.9,0.7-4.7,2.2-6.6c1.1-1.3,3.7-3.9,4.7-5.9c1-2,0.8-3.1,0.8-3.9
		s-0.4-2-0.4-2C46,7.9,46.8,8.4,47,8.7c0.4,0.4,0.8,0.7,0.8,0.7c0.1-0.6,0.2-1.7-0.1-3.1C47.3,4.2,46.3,3,44.9,2
		c-1.5-1.2-2.8-1.1-2.8-1.1c0.6,0.8,1,1.6,1.2,2.8c0.2,1.2,0.2,2.5-0.4,4c-0.7,1.7-2.7,3.2-4.2,4.7c-1.5,1.5-2.8,3-3.8,5.1
		c-1.2,2.5-1.3,4.4-0.9,6.9c0.5,2.9,2.1,4.7,2.1,4.7c-1.2-0.4-2.2-1.2-2.9-1.9c-0.7-0.8-1.1-1.6-1.4-2.3l-7.8,5.3l0,8l21,17.7
		l21.1-17.7v-2.7L45.2,53v-2.7l20.9-17.5v-2.4l-11.5-7.6c0.2,0.8,0.4,2.7-0.7,5c-1.4,2.9-4.8,5.3-5.9,5.9c-1.3,0.8-2,1.6-2.2,2.4
		c-0.1,0.4-0.3,1-0.1,1.7l0,0c1.4,0.3,2.5,1.5,2.5,3.1c0,1.8-1.4,3.2-3.2,3.2c-1.8,0-3.2-1.4-3.2-3.2C41.7,39.2,42.8,37.9,44.3,37.6
		L44.3,37.6z"/>
</g>
</svg>
